<?xml version="1.0" encoding="utf-8"?>
<!-- Generator: Adobe Illustrator 19.2.1, SVG Export Plug-In . SVG Version: 6.00 Build 0)  -->
<svg version="1.1" id="Layer_1" xmlns="http://www.w3.org/2000/svg" xmlns:xlink="http://www.w3.org/1999/xlink" x="0px" y="0px"
	 viewBox="0 0 17.4 17.2" style="enable-background:new 0 0 17.4 17.2;" xml:space="preserve">
<style type="text/css">
	.st0{fill:#FCCC4A;}
</style>
<path class="st0" d="M0,7c0-0.3,0.2-0.6,0.4-0.7C1.1,5.9,2.9,6,3.4,6.1c1.9,0.6,2.8,2.4,7.3,1.2c1.8-0.5,3.2-0.1,3.5,0
	c0.4,0.2,0.6,0.4,0.6,0.9c0,1.5,0,4.8,0,7.4c0,0.8-0.6,1.4-1.4,1.4c-0.9,0-2,0-2.8,0c-0.7,0-1.6-0.6-1.6-1.4c0-1.6,0-3,0-4.6
	c0-1.5-0.9-1.8-2.7-1.4C6.1,9.6,6,9.6,6,9.8c0,0.5,0,3.4-0.1,5.7c0,0.8-0.6,1.4-1.4,1.4l-3.2,0c-0.8,0-1.4-0.6-1.4-1.4
	C0,12.8,0,8.2,0,7"/>
<path class="st0" d="M15,3.4C15,2.1,13.9,1,12.5,1C11.1,1,10,2.1,10,3.4c0,1.4,1.1,2.5,2.5,2.5C13.9,5.9,15,4.8,15,3.4"/>
<path class="st0" d="M5,2.5C5,1.1,3.9,0,2.5,0C1.1,0,0,1.1,0,2.5C0,3.8,1.1,5,2.5,5C3.9,5,5,3.8,5,2.5"/>
</svg>
